<?xml version="1.0" standalone="no"?>
<!DOCTYPE svg PUBLIC "-//W3C//DTD SVG 20010904//EN"
 "http://www.w3.org/TR/2001/REC-SVG-20010904/DTD/svg10.dtd">
<svg version="1.0" xmlns="http://www.w3.org/2000/svg"
 width="700.000000pt" height="700.000000pt" viewBox="0 0 700.000000 700.000000"
 preserveAspectRatio="xMidYMid meet">
<metadata>
Created by potrace 1.14, written by Peter Selinger 2001-2017
</metadata>
<g transform="translate(0.000000,700.000000) scale(0.100000,-0.100000)"
fill="#000000" stroke="none">
<path d="M211 6326 c10 -17 22 -38 26 -46 4 -8 54 -96 112 -195 57 -99 112
-193 121 -210 10 -16 210 -363 445 -770 235 -407 477 -825 537 -930 60 -104
114 -197 119 -205 59 -97 349 -606 349 -612 0 -28 28 9 101 135 45 78 103 178
129 222 44 74 176 304 427 740 57 99 107 187 112 195 9 14 182 313 240 414 13
22 90 156 171 296 81 140 156 271 167 290 11 19 46 80 78 135 144 247 318 551
322 561 3 7 -499 10 -1735 10 l-1739 0 18 -30z"/>
<path d="M4294 6333 c-8 -13 -21 -34 -29 -47 -8 -14 -24 -42 -36 -63 -28 -50
-213 -371 -379 -658 -74 -126 -141 -243 -149 -258 -9 -16 -21 -36 -26 -45 -9
-15 -60 -102 -176 -305 -81 -140 -528 -915 -547 -947 -12 -19 -36 -62 -55 -95
-18 -33 -84 -147 -145 -252 -167 -288 -325 -560 -419 -724 l-84 -147 354 -613
c195 -338 364 -630 375 -649 26 -46 69 -120 181 -315 51 -88 148 -255 215
-372 90 -158 124 -209 132 -200 10 11 125 209 235 405 12 20 25 42 29 47 4 6
21 35 37 65 17 30 63 111 103 180 40 69 81 139 90 155 10 17 167 289 350 605
183 316 343 594 356 617 13 23 81 140 151 260 152 262 438 759 518 898 13 22
62 108 110 190 48 83 96 166 107 185 11 19 37 64 58 100 21 36 47 81 58 100
63 111 509 884 552 955 27 47 50 88 50 91 0 3 8 18 19 32 10 15 29 47 43 72
14 25 40 71 59 103 19 32 43 75 54 95 11 20 39 69 62 107 148 251 253 439 248
444 -4 3 -565 6 -1247 7 l-1240 0 -14 -23z"/>
</g>
</svg>
